<svg xmlns="http://www.w3.org/2000/svg" viewBox="0 0 180 180" width="180" height="180">
  <rect width="180" height="180" rx="22" fill="#7c3aed"/>
  <g transform="translate(36, 16) scale(3.875)">
    <path d="M6 2h14l6 6v20a2 2 0 0 1-2 2H6a2 2 0 0 1-2-2V4a2 2 0 0 1 2-2z" fill="#7c3aed"/>
    <path d="M20 2l6 6h-5a1 1 0 0 1-1-1V2z" fill="#a78bfa"/>
    <rect x="8" y="12" width="12" height="2" rx="1" fill="white" opacity="0.9"/>
    <rect x="8" y="17" width="10" height="2" rx="1" fill="white" opacity="0.7"/>
    <rect x="8" y="22" width="8" height="2" rx="1" fill="white" opacity="0.5"/>
  </g>
</svg>
